# xmcd CD database file
#
# Track frame offsets:
#	150
#	28666
#	55963
#	83606
#	110391
#	132874
#	162117
#	192980
#	219305
#	246266
#	271330
#
# Disc length: 3949 seconds
#
# Revision: 0
# Processed by: cddbd v1.5.2PL0 Copyright (c) Steve Scherf et al.
# Submitted via: CDex 1.51
#
DISCID=910f6b0b
DTITLE=OTSUKI "KALTA" HIDENOBU - VERTICAL-ENGINE
DYEAR=2008
DGENRE=Jazz
TTITLE0=STRATEGY
TTITLE1=ALTERNATOR
TTITLE2=SNARL(VERSION)
TTITLE3=MOON LOST
TTITLE4=ARITHMETIC
TTITLE5=BACH-LOGY SHIFT
TTITLE6=IMAGE
TTITLE7=LEGWORK AND CHASE
TTITLE8=CLOUD CASTLE
TTITLE9=ICON
TTITLE10=EPISTROPHY
EXTD=YEAR: 2008
EXTT0=
EXTT1=
EXTT2=
EXTT3=
EXTT4=
EXTT5=
EXTT6=
EXTT7=
EXTT8=
EXTT9=
EXTT10=
PLAYORDER=
